<?xml version="1.0" encoding="utf-8" standalone="no"?>
<!DOCTYPE svg PUBLIC "-//W3C//DTD SVG 1.1//EN"
  "http://www.w3.org/Graphics/SVG/1.1/DTD/svg11.dtd">
<svg xmlns:xlink="http://www.w3.org/1999/xlink" width="231.965pt" height="238.79625pt" viewBox="0 0 231.965 238.79625" xmlns="http://www.w3.org/2000/svg" version="1.1">
 <metadata>
  <rdf:RDF xmlns:dc="http://purl.org/dc/elements/1.1/" xmlns:cc="http://creativecommons.org/ns#" xmlns:rdf="http://www.w3.org/1999/02/22-rdf-syntax-ns#">
   <cc:Work>
    <dc:type rdf:resource="http://purl.org/dc/dcmitype/StillImage"/>
    <dc:date>2026-01-09T13:50:37.009634</dc:date>
    <dc:format>image/svg+xml</dc:format>
    <dc:creator>
     <cc:Agent>
      <dc:title>Matplotlib v3.10.8, https://matplotlib.org/</dc:title>
     </cc:Agent>
    </dc:creator>
   </cc:Work>
  </rdf:RDF>
 </metadata>
 <defs>
  <style type="text/css">*{stroke-linejoin: round; stroke-linecap: butt}</style>
 </defs>
 <g id="figure_1">
  <g id="patch_1">
   <path d="M 0 238.79625 
L 231.965 238.79625 
L 231.965 0 
L 0 0 
z
" style="fill: #ffffff"/>
  </g>
  <g id="axes_1">
   <g id="patch_2">
    <path d="M 40.625 201.24 
L 224.765 201.24 
L 224.765 7.2 
L 40.625 7.2 
z
" style="fill: #ffffff"/>
   </g>
   <g id="FillBetweenPolyCollection_1">
    <defs>
     <path id="mcd2089705a" d="M 81.396227 -46.37625 
L 61.233773 -46.37625 
L 60.246251 -47.305894 
L 59.242851 -48.235539 
L 58.232594 -49.165183 
L 57.224554 -50.094827 
L 56.227654 -51.024471 
L 55.250483 -51.954116 
L 54.301147 -52.88376 
L 53.387159 -53.813404 
L 52.515356 -54.743048 
L 51.691849 -55.672693 
L 50.921991 -56.602337 
L 50.210364 -57.531981 
L 49.560779 -58.461625 
L 48.976274 -59.39127 
L 48.459121 -60.320914 
L 48.010836 -61.250558 
L 47.632195 -62.180203 
L 47.323252 -63.109847 
L 47.083384 -64.039491 
L 46.911338 -64.969135 
L 46.805304 -65.89878 
L 46.763 -66.828424 
L 46.781775 -67.758068 
L 46.858713 -68.687712 
L 46.99074 -69.617357 
L 47.174718 -70.547001 
L 47.407527 -71.476645 
L 47.686114 -72.40629 
L 48.007519 -73.335934 
L 48.36887 -74.265578 
L 48.767349 -75.195222 
L 49.200144 -76.124867 
L 49.664382 -77.054511 
L 50.157067 -77.984155 
L 50.675025 -78.913799 
L 51.214874 -79.843444 
L 51.773017 -80.773088 
L 52.345667 -81.702732 
L 52.928904 -82.632376 
L 53.518757 -83.562021 
L 54.111304 -84.491665 
L 54.70278 -85.421309 
L 55.289678 -86.350954 
L 55.868831 -87.280598 
L 56.437471 -88.210242 
L 56.993249 -89.139886 
L 57.534226 -90.069531 
L 58.058816 -90.999175 
L 58.56572 -91.928819 
L 59.053828 -92.858463 
L 59.522132 -93.788108 
L 59.969641 -94.717752 
L 60.39533 -95.647396 
L 60.798125 -96.577041 
L 61.176924 -97.506685 
L 61.530673 -98.436329 
L 61.858469 -99.365973 
L 62.159702 -100.295618 
L 62.434199 -101.225262 
L 62.68237 -102.154906 
L 62.905321 -103.08455 
L 63.104932 -104.014195 
L 63.283877 -104.943839 
L 63.445572 -105.873483 
L 63.594071 -106.803127 
L 63.733887 -107.732772 
L 63.86977 -108.662416 
L 64.006458 -109.59206 
L 64.148405 -110.521705 
L 64.299533 -111.451349 
L 64.463005 -112.380993 
L 64.641056 -113.310637 
L 64.834882 -114.240282 
L 65.044607 -115.169926 
L 65.269308 -116.09957 
L 65.507123 -117.029214 
L 65.7554 -117.958859 
L 66.010894 -118.888503 
L 66.269988 -119.818147 
L 66.528918 -120.747792 
L 66.783993 -121.677436 
L 67.03179 -122.60708 
L 67.269318 -123.536724 
L 67.494149 -124.466369 
L 67.704495 -125.396013 
L 67.899253 -126.325657 
L 68.07801 -127.255301 
L 68.241007 -128.184946 
L 68.38908 -129.11459 
L 68.523573 -130.044234 
L 68.646233 -130.973878 
L 68.759097 -131.903523 
L 68.864367 -132.833167 
L 68.964291 -133.762811 
L 69.061042 -134.692456 
L 69.156614 -135.6221 
L 69.252726 -136.551744 
L 69.350747 -137.481388 
L 69.451649 -138.411033 
L 73.178351 -138.411033 
L 73.178351 -138.411033 
L 73.279253 -137.481388 
L 73.377274 -136.551744 
L 73.473386 -135.6221 
L 73.568958 -134.692456 
L 73.665709 -133.762811 
L 73.765633 -132.833167 
L 73.870903 -131.903523 
L 73.983767 -130.973878 
L 74.106427 -130.044234 
L 74.24092 -129.11459 
L 74.388993 -128.184946 
L 74.55199 -127.255301 
L 74.730747 -126.325657 
L 74.925505 -125.396013 
L 75.135851 -124.466369 
L 75.360682 -123.536724 
L 75.59821 -122.60708 
L 75.846007 -121.677436 
L 76.101082 -120.747792 
L 76.360012 -119.818147 
L 76.619106 -118.888503 
L 76.8746 -117.958859 
L 77.122877 -117.029214 
L 77.360692 -116.09957 
L 77.585393 -115.169926 
L 77.795118 -114.240282 
L 77.988944 -113.310637 
L 78.166995 -112.380993 
L 78.330467 -111.451349 
L 78.481595 -110.521705 
L 78.623542 -109.59206 
L 78.76023 -108.662416 
L 78.896113 -107.732772 
L 79.035929 -106.803127 
L 79.184428 -105.873483 
L 79.346123 -104.943839 
L 79.525068 -104.014195 
L 79.724679 -103.08455 
L 79.94763 -102.154906 
L 80.195801 -101.225262 
L 80.470298 -100.295618 
L 80.771531 -99.365973 
L 81.099327 -98.436329 
L 81.453076 -97.506685 
L 81.831875 -96.577041 
L 82.23467 -95.647396 
L 82.660359 -94.717752 
L 83.107868 -93.788108 
L 83.576172 -92.858463 
L 84.06428 -91.928819 
L 84.571184 -90.999175 
L 85.095774 -90.069531 
L 85.636751 -89.139886 
L 86.192529 -88.210242 
L 86.761169 -87.280598 
L 87.340322 -86.350954 
L 87.92722 -85.421309 
L 88.518696 -84.491665 
L 89.111243 -83.562021 
L 89.701096 -82.632376 
L 90.284333 -81.702732 
L 90.856983 -80.773088 
L 91.415126 -79.843444 
L 91.954975 -78.913799 
L 92.472933 -77.984155 
L 92.965618 -77.054511 
L 93.429856 -76.124867 
L 93.862651 -75.195222 
L 94.26113 -74.265578 
L 94.622481 -73.335934 
L 94.943886 -72.40629 
L 95.222473 -71.476645 
L 95.455282 -70.547001 
L 95.63926 -69.617357 
L 95.771287 -68.687712 
L 95.848225 -67.758068 
L 95.867 -66.828424 
L 95.824696 -65.89878 
L 95.718662 -64.969135 
L 95.546616 -64.039491 
L 95.306748 -63.109847 
L 94.997805 -62.180203 
L 94.619164 -61.250558 
L 94.170879 -60.320914 
L 93.653726 -59.39127 
L 93.069221 -58.461625 
L 92.419636 -57.531981 
L 91.708009 -56.602337 
L 90.938151 -55.672693 
L 90.114644 -54.743048 
L 89.242841 -53.813404 
L 88.328853 -52.88376 
L 87.379517 -51.954116 
L 86.402346 -51.024471 
L 85.405446 -50.094827 
L 84.397406 -49.165183 
L 83.387149 -48.235539 
L 82.383749 -47.305894 
L 81.396227 -46.37625 
z
" style="stroke: #000000"/>
    </defs>
    <g clip-path="url(#p105db3de43)">
     <use xlink:href="#mcd2089705a" x="0" y="238.79625" style="fill: #ccb0ed; stroke: #000000"/>
    </g>
   </g>
   <g id="FillBetweenPolyCollection_2">
    <defs>
     <path id="m264a7e43c3" d="M 149.740107 -115.402337 
L 115.649893 -115.402337 
L 115.09965 -116.370716 
L 114.565377 -117.339096 
L 114.04833 -118.307475 
L 113.54961 -119.275855 
L 113.070159 -120.244234 
L 112.610777 -121.212614 
L 112.172121 -122.180993 
L 111.754729 -123.149373 
L 111.359027 -124.117752 
L 110.985351 -125.086131 
L 110.633959 -126.054511 
L 110.305055 -127.02289 
L 109.998798 -127.99127 
L 109.715327 -128.959649 
L 109.454764 -129.928029 
L 109.217237 -130.896408 
L 109.002878 -131.864788 
L 108.811838 -132.833167 
L 108.644283 -133.801546 
L 108.500397 -134.769926 
L 108.380379 -135.738305 
L 108.284434 -136.706685 
L 108.212765 -137.675064 
L 108.165565 -138.643444 
L 108.143 -139.611823 
L 108.145198 -140.580203 
L 108.172237 -141.548582 
L 108.224127 -142.516961 
L 108.300801 -143.485341 
L 108.402103 -144.45372 
L 108.527778 -145.4221 
L 108.677467 -146.390479 
L 108.850698 -147.358859 
L 109.046892 -148.327238 
L 109.265359 -149.295618 
L 109.505304 -150.263997 
L 109.765834 -151.232376 
L 110.045971 -152.200756 
L 110.34466 -153.169135 
L 110.660783 -154.137515 
L 110.993177 -155.105894 
L 111.340647 -156.074274 
L 111.701982 -157.042653 
L 112.075972 -158.011033 
L 112.461419 -158.979412 
L 112.857152 -159.947792 
L 113.262037 -160.916171 
L 113.674986 -161.88455 
L 114.094964 -162.85293 
L 114.520988 -163.821309 
L 114.952134 -164.789689 
L 115.38753 -165.758068 
L 115.826354 -166.726448 
L 116.26783 -167.694827 
L 116.711215 -168.663207 
L 117.155793 -169.631586 
L 117.600866 -170.599965 
L 118.045741 -171.568345 
L 118.489719 -172.536724 
L 118.932091 -173.505104 
L 119.372123 -174.473483 
L 119.809056 -175.441863 
L 120.242096 -176.410242 
L 120.670415 -177.378622 
L 121.093151 -178.347001 
L 121.509409 -179.31538 
L 121.918272 -180.28376 
L 122.318801 -181.252139 
L 122.710055 -182.220519 
L 123.091093 -183.188898 
L 123.460999 -184.157278 
L 123.818891 -185.125657 
L 124.163938 -186.094037 
L 124.49538 -187.062416 
L 124.812539 -188.030795 
L 125.114843 -188.999175 
L 125.401831 -189.967554 
L 125.673173 -190.935934 
L 125.928677 -191.904313 
L 126.168297 -192.872693 
L 126.392141 -193.841072 
L 126.600468 -194.809452 
L 126.793693 -195.777831 
L 126.972377 -196.74621 
L 127.137223 -197.71459 
L 127.289066 -198.682969 
L 127.428856 -199.651349 
L 127.557647 -200.619728 
L 127.676574 -201.588108 
L 127.786839 -202.556487 
L 127.889686 -203.524867 
L 127.986383 -204.493246 
L 128.078197 -205.461625 
L 128.166374 -206.430005 
L 128.25212 -207.398384 
L 128.336581 -208.366764 
L 128.420823 -209.335143 
L 128.50582 -210.303523 
L 128.592436 -211.271902 
L 136.797564 -211.271902 
L 136.797564 -211.271902 
L 136.88418 -210.303523 
L 136.969177 -209.335143 
L 137.053419 -208.366764 
L 137.13788 -207.398384 
L 137.223626 -206.430005 
L 137.311803 -205.461625 
L 137.403617 -204.493246 
L 137.500314 -203.524867 
L 137.603161 -202.556487 
L 137.713426 -201.588108 
L 137.832353 -200.619728 
L 137.961144 -199.651349 
L 138.100934 -198.682969 
L 138.252777 -197.71459 
L 138.417623 -196.74621 
L 138.596307 -195.777831 
L 138.789532 -194.809452 
L 138.997859 -193.841072 
L 139.221703 -192.872693 
L 139.461323 -191.904313 
L 139.716827 -190.935934 
L 139.988169 -189.967554 
L 140.275157 -188.999175 
L 140.577461 -188.030795 
L 140.89462 -187.062416 
L 141.226062 -186.094037 
L 141.571109 -185.125657 
L 141.929001 -184.157278 
L 142.298907 -183.188898 
L 142.679945 -182.220519 
L 143.071199 -181.252139 
L 143.471728 -180.28376 
L 143.880591 -179.31538 
L 144.296849 -178.347001 
L 144.719585 -177.378622 
L 145.147904 -176.410242 
L 145.580944 -175.441863 
L 146.017877 -174.473483 
L 146.457909 -173.505104 
L 146.900281 -172.536724 
L 147.344259 -171.568345 
L 147.789134 -170.599965 
L 148.234207 -169.631586 
L 148.678785 -168.663207 
L 149.12217 -167.694827 
L 149.563646 -166.726448 
L 150.00247 -165.758068 
L 150.437866 -164.789689 
L 150.869012 -163.821309 
L 151.295036 -162.85293 
L 151.715014 -161.88455 
L 152.127963 -160.916171 
L 152.532848 -159.947792 
L 152.928581 -158.979412 
L 153.314028 -158.011033 
L 153.688018 -157.042653 
L 154.049353 -156.074274 
L 154.396823 -155.105894 
L 154.729217 -154.137515 
L 155.04534 -153.169135 
L 155.344029 -152.200756 
L 155.624166 -151.232376 
L 155.884696 -150.263997 
L 156.124641 -149.295618 
L 156.343108 -148.327238 
L 156.539302 -147.358859 
L 156.712533 -146.390479 
L 156.862222 -145.4221 
L 156.987897 -144.45372 
L 157.089199 -143.485341 
L 157.165873 -142.516961 
L 157.217763 -141.548582 
L 157.244802 -140.580203 
L 157.247 -139.611823 
L 157.224435 -138.643444 
L 157.177235 -137.675064 
L 157.105566 -136.706685 
L 157.009621 -135.738305 
L 156.889603 -134.769926 
L 156.745717 -133.801546 
L 156.578162 -132.833167 
L 156.387122 -131.864788 
L 156.172763 -130.896408 
L 155.935236 -129.928029 
L 155.674673 -128.959649 
L 155.391202 -127.99127 
L 155.084945 -127.02289 
L 154.756041 -126.054511 
L 154.404649 -125.086131 
L 154.030973 -124.117752 
L 153.635271 -123.149373 
L 153.217879 -122.180993 
L 152.779223 -121.212614 
L 152.319841 -120.244234 
L 151.84039 -119.275855 
L 151.34167 -118.307475 
L 150.824623 -117.339096 
L 150.29035 -116.370716 
L 149.740107 -115.402337 
z
" style="stroke: #000000"/>
    </defs>
    <g clip-path="url(#p105db3de43)">
     <use xlink:href="#m264a7e43c3" x="0" y="238.79625" style="fill: #edcaa9; stroke: #000000"/>
    </g>
   </g>
   <g id="FillBetweenPolyCollection_3">
    <defs>
     <path id="mef62c9a3dc" d="M 205.389611 -161.419728 
L 182.760389 -161.419728 
L 182.612983 -162.039491 
L 182.466905 -162.659254 
L 182.321906 -163.279017 
L 182.177718 -163.89878 
L 182.034059 -164.518542 
L 181.89063 -165.138305 
L 181.74712 -165.758068 
L 181.603209 -166.377831 
L 181.458569 -166.997594 
L 181.312864 -167.617357 
L 181.165759 -168.23712 
L 181.016915 -168.856882 
L 180.865996 -169.476645 
L 180.712672 -170.096408 
L 180.556618 -170.716171 
L 180.397523 -171.335934 
L 180.235086 -171.955697 
L 180.069022 -172.575459 
L 179.899065 -173.195222 
L 179.72497 -173.814985 
L 179.546515 -174.434748 
L 179.363503 -175.054511 
L 179.175767 -175.674274 
L 178.983168 -176.294037 
L 178.7856 -176.913799 
L 178.58299 -177.533562 
L 178.375302 -178.153325 
L 178.162535 -178.773088 
L 177.944727 -179.392851 
L 177.721953 -180.012614 
L 177.494331 -180.632376 
L 177.262014 -181.252139 
L 177.0252 -181.871902 
L 176.784125 -182.491665 
L 176.539063 -183.111428 
L 176.290329 -183.731191 
L 176.038278 -184.350954 
L 175.783299 -184.970716 
L 175.52582 -185.590479 
L 175.2663 -186.210242 
L 175.005235 -186.830005 
L 174.743149 -187.449768 
L 174.480595 -188.069531 
L 174.218154 -188.689293 
L 173.956429 -189.309056 
L 173.696044 -189.928819 
L 173.437644 -190.548582 
L 173.181887 -191.168345 
L 172.929445 -191.788108 
L 172.680997 -192.407871 
L 172.437233 -193.027633 
L 172.198841 -193.647396 
L 171.966513 -194.267159 
L 171.740935 -194.886922 
L 171.522789 -195.506685 
L 171.312746 -196.126448 
L 171.111466 -196.74621 
L 170.919592 -197.365973 
L 170.73775 -197.985736 
L 170.566545 -198.605499 
L 170.406556 -199.225262 
L 170.258341 -199.845025 
L 170.122424 -200.464788 
L 169.999302 -201.08455 
L 169.889439 -201.704313 
L 169.793263 -202.324076 
L 169.711168 -202.943839 
L 169.64351 -203.563602 
L 169.590607 -204.183365 
L 169.552736 -204.803127 
L 169.530135 -205.42289 
L 169.523 -206.042653 
L 169.531487 -206.662416 
L 169.55571 -207.282179 
L 169.59574 -207.901942 
L 169.651608 -208.521705 
L 169.723305 -209.141467 
L 169.810779 -209.76123 
L 169.913939 -210.380993 
L 170.032655 -211.000756 
L 170.166761 -211.620519 
L 170.31605 -212.240282 
L 170.480283 -212.860044 
L 170.659184 -213.479807 
L 170.852447 -214.09957 
L 171.059731 -214.719333 
L 171.280669 -215.339096 
L 171.514864 -215.958859 
L 171.761892 -216.578622 
L 172.021307 -217.198384 
L 172.292638 -217.818147 
L 172.575395 -218.43791 
L 172.869067 -219.057673 
L 173.17313 -219.677436 
L 173.48704 -220.297199 
L 173.810244 -220.916961 
L 174.142175 -221.536724 
L 174.482259 -222.156487 
L 174.829911 -222.77625 
L 213.320089 -222.77625 
L 213.320089 -222.77625 
L 213.667741 -222.156487 
L 214.007825 -221.536724 
L 214.339756 -220.916961 
L 214.66296 -220.297199 
L 214.97687 -219.677436 
L 215.280933 -219.057673 
L 215.574605 -218.43791 
L 215.857362 -217.818147 
L 216.128693 -217.198384 
L 216.388108 -216.578622 
L 216.635136 -215.958859 
L 216.869331 -215.339096 
L 217.090269 -214.719333 
L 217.297553 -214.09957 
L 217.490816 -213.479807 
L 217.669717 -212.860044 
L 217.83395 -212.240282 
L 217.983239 -211.620519 
L 218.117345 -211.000756 
L 218.236061 -210.380993 
L 218.339221 -209.76123 
L 218.426695 -209.141467 
L 218.498392 -208.521705 
L 218.55426 -207.901942 
L 218.59429 -207.282179 
L 218.618513 -206.662416 
L 218.627 -206.042653 
L 218.619865 -205.42289 
L 218.597264 -204.803127 
L 218.559393 -204.183365 
L 218.50649 -203.563602 
L 218.438832 -202.943839 
L 218.356737 -202.324076 
L 218.260561 -201.704313 
L 218.150698 -201.08455 
L 218.027576 -200.464788 
L 217.891659 -199.845025 
L 217.743444 -199.225262 
L 217.583455 -198.605499 
L 217.41225 -197.985736 
L 217.230408 -197.365973 
L 217.038534 -196.74621 
L 216.837254 -196.126448 
L 216.627211 -195.506685 
L 216.409065 -194.886922 
L 216.183487 -194.267159 
L 215.951159 -193.647396 
L 215.712767 -193.027633 
L 215.469003 -192.407871 
L 215.220555 -191.788108 
L 214.968113 -191.168345 
L 214.712356 -190.548582 
L 214.453956 -189.928819 
L 214.193571 -189.309056 
L 213.931846 -188.689293 
L 213.669405 -188.069531 
L 213.406851 -187.449768 
L 213.144765 -186.830005 
L 212.8837 -186.210242 
L 212.62418 -185.590479 
L 212.366701 -184.970716 
L 212.111722 -184.350954 
L 211.859671 -183.731191 
L 211.610937 -183.111428 
L 211.365875 -182.491665 
L 211.1248 -181.871902 
L 210.887986 -181.252139 
L 210.655669 -180.632376 
L 210.428047 -180.012614 
L 210.205273 -179.392851 
L 209.987465 -178.773088 
L 209.774698 -178.153325 
L 209.56701 -177.533562 
L 209.3644 -176.913799 
L 209.166832 -176.294037 
L 208.974233 -175.674274 
L 208.786497 -175.054511 
L 208.603485 -174.434748 
L 208.42503 -173.814985 
L 208.250935 -173.195222 
L 208.080978 -172.575459 
L 207.914914 -171.955697 
L 207.752477 -171.335934 
L 207.593382 -170.716171 
L 207.437328 -170.096408 
L 207.284004 -169.476645 
L 207.133085 -168.856882 
L 206.984241 -168.23712 
L 206.837136 -167.617357 
L 206.691431 -166.997594 
L 206.546791 -166.377831 
L 206.40288 -165.758068 
L 206.25937 -165.138305 
L 206.115941 -164.518542 
L 205.972282 -163.89878 
L 205.828094 -163.279017 
L 205.683095 -162.659254 
L 205.537017 -162.039491 
L 205.389611 -161.419728 
z
" style="stroke: #000000"/>
    </defs>
    <g clip-path="url(#p105db3de43)">
     <use xlink:href="#mef62c9a3dc" x="0" y="238.79625" style="fill: #e49790; stroke: #000000"/>
    </g>
   </g>
   <g id="matplotlib.axis_1">
    <g id="xtick_1">
     <g id="line2d_1">
      <defs>
       <path id="m4ec98677bd" d="M 0 0 
L 0 3.5 
" style="stroke: #000000; stroke-width: 0.8"/>
      </defs>
      <g>
       <use xlink:href="#m4ec98677bd" x="71.315" y="201.24" style="stroke: #000000; stroke-width: 0.8"/>
      </g>
     </g>
     <g id="text_1">
      <!-- 1 -->
      <g transform="translate(68.13375 215.838437) scale(0.1 -0.1)">
       <defs>
        <path id="DejaVuSans-31" d="M 794 531 
L 1825 531 
L 1825 4091 
L 703 3866 
L 703 4441 
L 1819 4666 
L 2450 4666 
L 2450 531 
L 3481 531 
L 3481 0 
L 794 0 
L 794 531 
z
" transform="scale(0.015625)"/>
       </defs>
       <use xlink:href="#DejaVuSans-31"/>
      </g>
     </g>
    </g>
    <g id="xtick_2">
     <g id="line2d_2">
      <g>
       <use xlink:href="#m4ec98677bd" x="132.695" y="201.24" style="stroke: #000000; stroke-width: 0.8"/>
      </g>
     </g>
     <g id="text_2">
      <!-- 2 -->
      <g transform="translate(129.51375 215.838437) scale(0.1 -0.1)">
       <defs>
        <path id="DejaVuSans-32" d="M 1228 531 
L 3431 531 
L 3431 0 
L 469 0 
L 469 531 
Q 828 903 1448 1529 
Q 2069 2156 2228 2338 
Q 2531 2678 2651 2914 
Q 2772 3150 2772 3378 
Q 2772 3750 2511 3984 
Q 2250 4219 1831 4219 
Q 1534 4219 1204 4116 
Q 875 4013 500 3803 
L 500 4441 
Q 881 4594 1212 4672 
Q 1544 4750 1819 4750 
Q 2544 4750 2975 4387 
Q 3406 4025 3406 3419 
Q 3406 3131 3298 2873 
Q 3191 2616 2906 2266 
Q 2828 2175 2409 1742 
Q 1991 1309 1228 531 
z
" transform="scale(0.015625)"/>
       </defs>
       <use xlink:href="#DejaVuSans-32"/>
      </g>
     </g>
    </g>
    <g id="xtick_3">
     <g id="line2d_3">
      <g>
       <use xlink:href="#m4ec98677bd" x="194.075" y="201.24" style="stroke: #000000; stroke-width: 0.8"/>
      </g>
     </g>
     <g id="text_3">
      <!-- 3 -->
      <g transform="translate(190.89375 215.838437) scale(0.1 -0.1)">
       <defs>
        <path id="DejaVuSans-33" d="M 2597 2516 
Q 3050 2419 3304 2112 
Q 3559 1806 3559 1356 
Q 3559 666 3084 287 
Q 2609 -91 1734 -91 
Q 1441 -91 1130 -33 
Q 819 25 488 141 
L 488 750 
Q 750 597 1062 519 
Q 1375 441 1716 441 
Q 2309 441 2620 675 
Q 2931 909 2931 1356 
Q 2931 1769 2642 2001 
Q 2353 2234 1838 2234 
L 1294 2234 
L 1294 2753 
L 1863 2753 
Q 2328 2753 2575 2939 
Q 2822 3125 2822 3475 
Q 2822 3834 2567 4026 
Q 2313 4219 1838 4219 
Q 1578 4219 1281 4162 
Q 984 4106 628 3988 
L 628 4550 
Q 988 4650 1302 4700 
Q 1616 4750 1894 4750 
Q 2613 4750 3031 4423 
Q 3450 4097 3450 3541 
Q 3450 3153 3228 2886 
Q 3006 2619 2597 2516 
z
" transform="scale(0.015625)"/>
       </defs>
       <use xlink:href="#DejaVuSans-33"/>
      </g>
     </g>
    </g>
    <g id="text_4">
     <!-- Reaction Steps -->
     <g transform="translate(95.399688 229.516562) scale(0.1 -0.1)">
      <defs>
       <path id="DejaVuSans-52" d="M 2841 2188 
Q 3044 2119 3236 1894 
Q 3428 1669 3622 1275 
L 4263 0 
L 3584 0 
L 2988 1197 
Q 2756 1666 2539 1819 
Q 2322 1972 1947 1972 
L 1259 1972 
L 1259 0 
L 628 0 
L 628 4666 
L 2053 4666 
Q 2853 4666 3247 4331 
Q 3641 3997 3641 3322 
Q 3641 2881 3436 2590 
Q 3231 2300 2841 2188 
z
M 1259 4147 
L 1259 2491 
L 2053 2491 
Q 2509 2491 2742 2702 
Q 2975 2913 2975 3322 
Q 2975 3731 2742 3939 
Q 2509 4147 2053 4147 
L 1259 4147 
z
" transform="scale(0.015625)"/>
       <path id="DejaVuSans-65" d="M 3597 1894 
L 3597 1613 
L 953 1613 
Q 991 1019 1311 708 
Q 1631 397 2203 397 
Q 2534 397 2845 478 
Q 3156 559 3463 722 
L 3463 178 
Q 3153 47 2828 -22 
Q 2503 -91 2169 -91 
Q 1331 -91 842 396 
Q 353 884 353 1716 
Q 353 2575 817 3079 
Q 1281 3584 2069 3584 
Q 2775 3584 3186 3129 
Q 3597 2675 3597 1894 
z
M 3022 2063 
Q 3016 2534 2758 2815 
Q 2500 3097 2075 3097 
Q 1594 3097 1305 2825 
Q 1016 2553 972 2059 
L 3022 2063 
z
" transform="scale(0.015625)"/>
       <path id="DejaVuSans-61" d="M 2194 1759 
Q 1497 1759 1228 1600 
Q 959 1441 959 1056 
Q 959 750 1161 570 
Q 1363 391 1709 391 
Q 2188 391 2477 730 
Q 2766 1069 2766 1631 
L 2766 1759 
L 2194 1759 
z
M 3341 1997 
L 3341 0 
L 2766 0 
L 2766 531 
Q 2569 213 2275 61 
Q 1981 -91 1556 -91 
Q 1019 -91 701 211 
Q 384 513 384 1019 
Q 384 1609 779 1909 
Q 1175 2209 1959 2209 
L 2766 2209 
L 2766 2266 
Q 2766 2663 2505 2880 
Q 2244 3097 1772 3097 
Q 1472 3097 1187 3025 
Q 903 2953 641 2809 
L 641 3341 
Q 956 3463 1253 3523 
Q 1550 3584 1831 3584 
Q 2591 3584 2966 3190 
Q 3341 2797 3341 1997 
z
" transform="scale(0.015625)"/>
       <path id="DejaVuSans-63" d="M 3122 3366 
L 3122 2828 
Q 2878 2963 2633 3030 
Q 2388 3097 2138 3097 
Q 1578 3097 1268 2742 
Q 959 2388 959 1747 
Q 959 1106 1268 751 
Q 1578 397 2138 397 
Q 2388 397 2633 464 
Q 2878 531 3122 666 
L 3122 134 
Q 2881 22 2623 -34 
Q 2366 -91 2075 -91 
Q 1284 -91 818 406 
Q 353 903 353 1747 
Q 353 2603 823 3093 
Q 1294 3584 2113 3584 
Q 2378 3584 2631 3529 
Q 2884 3475 3122 3366 
z
" transform="scale(0.015625)"/>
       <path id="DejaVuSans-74" d="M 1172 4494 
L 1172 3500 
L 2356 3500 
L 2356 3053 
L 1172 3053 
L 1172 1153 
Q 1172 725 1289 603 
Q 1406 481 1766 481 
L 2356 481 
L 2356 0 
L 1766 0 
Q 1100 0 847 248 
Q 594 497 594 1153 
L 594 3053 
L 172 3053 
L 172 3500 
L 594 3500 
L 594 4494 
L 1172 4494 
z
" transform="scale(0.015625)"/>
       <path id="DejaVuSans-69" d="M 603 3500 
L 1178 3500 
L 1178 0 
L 603 0 
L 603 3500 
z
M 603 4863 
L 1178 4863 
L 1178 4134 
L 603 4134 
L 603 4863 
z
" transform="scale(0.015625)"/>
       <path id="DejaVuSans-6f" d="M 1959 3097 
Q 1497 3097 1228 2736 
Q 959 2375 959 1747 
Q 959 1119 1226 758 
Q 1494 397 1959 397 
Q 2419 397 2687 759 
Q 2956 1122 2956 1747 
Q 2956 2369 2687 2733 
Q 2419 3097 1959 3097 
z
M 1959 3584 
Q 2709 3584 3137 3096 
Q 3566 2609 3566 1747 
Q 3566 888 3137 398 
Q 2709 -91 1959 -91 
Q 1206 -91 779 398 
Q 353 888 353 1747 
Q 353 2609 779 3096 
Q 1206 3584 1959 3584 
z
" transform="scale(0.015625)"/>
       <path id="DejaVuSans-6e" d="M 3513 2113 
L 3513 0 
L 2938 0 
L 2938 2094 
Q 2938 2591 2744 2837 
Q 2550 3084 2163 3084 
Q 1697 3084 1428 2787 
Q 1159 2491 1159 1978 
L 1159 0 
L 581 0 
L 581 3500 
L 1159 3500 
L 1159 2956 
Q 1366 3272 1645 3428 
Q 1925 3584 2291 3584 
Q 2894 3584 3203 3211 
Q 3513 2838 3513 2113 
z
" transform="scale(0.015625)"/>
       <path id="DejaVuSans-20" transform="scale(0.015625)"/>
       <path id="DejaVuSans-53" d="M 3425 4513 
L 3425 3897 
Q 3066 4069 2747 4153 
Q 2428 4238 2131 4238 
Q 1616 4238 1336 4038 
Q 1056 3838 1056 3469 
Q 1056 3159 1242 3001 
Q 1428 2844 1947 2747 
L 2328 2669 
Q 3034 2534 3370 2195 
Q 3706 1856 3706 1288 
Q 3706 609 3251 259 
Q 2797 -91 1919 -91 
Q 1588 -91 1214 -16 
Q 841 59 441 206 
L 441 856 
Q 825 641 1194 531 
Q 1563 422 1919 422 
Q 2459 422 2753 634 
Q 3047 847 3047 1241 
Q 3047 1584 2836 1778 
Q 2625 1972 2144 2069 
L 1759 2144 
Q 1053 2284 737 2584 
Q 422 2884 422 3419 
Q 422 4038 858 4394 
Q 1294 4750 2059 4750 
Q 2388 4750 2728 4690 
Q 3069 4631 3425 4513 
z
" transform="scale(0.015625)"/>
       <path id="DejaVuSans-70" d="M 1159 525 
L 1159 -1331 
L 581 -1331 
L 581 3500 
L 1159 3500 
L 1159 2969 
Q 1341 3281 1617 3432 
Q 1894 3584 2278 3584 
Q 2916 3584 3314 3078 
Q 3713 2572 3713 1747 
Q 3713 922 3314 415 
Q 2916 -91 2278 -91 
Q 1894 -91 1617 61 
Q 1341 213 1159 525 
z
M 3116 1747 
Q 3116 2381 2855 2742 
Q 2594 3103 2138 3103 
Q 1681 3103 1420 2742 
Q 1159 2381 1159 1747 
Q 1159 1113 1420 752 
Q 1681 391 2138 391 
Q 2594 391 2855 752 
Q 3116 1113 3116 1747 
z
" transform="scale(0.015625)"/>
       <path id="DejaVuSans-73" d="M 2834 3397 
L 2834 2853 
Q 2591 2978 2328 3040 
Q 2066 3103 1784 3103 
Q 1356 3103 1142 2972 
Q 928 2841 928 2578 
Q 928 2378 1081 2264 
Q 1234 2150 1697 2047 
L 1894 2003 
Q 2506 1872 2764 1633 
Q 3022 1394 3022 966 
Q 3022 478 2636 193 
Q 2250 -91 1575 -91 
Q 1294 -91 989 -36 
Q 684 19 347 128 
L 347 722 
Q 666 556 975 473 
Q 1284 391 1588 391 
Q 1994 391 2212 530 
Q 2431 669 2431 922 
Q 2431 1156 2273 1281 
Q 2116 1406 1581 1522 
L 1381 1569 
Q 847 1681 609 1914 
Q 372 2147 372 2553 
Q 372 3047 722 3315 
Q 1072 3584 1716 3584 
Q 2034 3584 2315 3537 
Q 2597 3491 2834 3397 
z
" transform="scale(0.015625)"/>
      </defs>
      <use xlink:href="#DejaVuSans-52"/>
      <use xlink:href="#DejaVuSans-65" transform="translate(64.982422 0)"/>
      <use xlink:href="#DejaVuSans-61" transform="translate(126.505859 0)"/>
      <use xlink:href="#DejaVuSans-63" transform="translate(187.785156 0)"/>
      <use xlink:href="#DejaVuSans-74" transform="translate(242.765625 0)"/>
      <use xlink:href="#DejaVuSans-69" transform="translate(281.974609 0)"/>
      <use xlink:href="#DejaVuSans-6f" transform="translate(309.757812 0)"/>
      <use xlink:href="#DejaVuSans-6e" transform="translate(370.939453 0)"/>
      <use xlink:href="#DejaVuSans-20" transform="translate(434.318359 0)"/>
      <use xlink:href="#DejaVuSans-53" transform="translate(466.105469 0)"/>
      <use xlink:href="#DejaVuSans-74" transform="translate(529.582031 0)"/>
      <use xlink:href="#DejaVuSans-65" transform="translate(568.791016 0)"/>
      <use xlink:href="#DejaVuSans-70" transform="translate(630.314453 0)"/>
      <use xlink:href="#DejaVuSans-73" transform="translate(693.791016 0)"/>
     </g>
    </g>
   </g>
   <g id="matplotlib.axis_2">
    <g id="ytick_1">
     <g id="line2d_4">
      <defs>
       <path id="m4ed6903be6" d="M 0 0 
L -3.5 0 
" style="stroke: #000000; stroke-width: 0.8"/>
      </defs>
      <g>
       <use xlink:href="#m4ed6903be6" x="40.625" y="180.915652" style="stroke: #000000; stroke-width: 0.8"/>
      </g>
     </g>
     <g id="text_5">
      <!-- 10 -->
      <g transform="translate(20.9 184.714871) scale(0.1 -0.1)">
       <defs>
        <path id="DejaVuSans-30" d="M 2034 4250 
Q 1547 4250 1301 3770 
Q 1056 3291 1056 2328 
Q 1056 1369 1301 889 
Q 1547 409 2034 409 
Q 2525 409 2770 889 
Q 3016 1369 3016 2328 
Q 3016 3291 2770 3770 
Q 2525 4250 2034 4250 
z
M 2034 4750 
Q 2819 4750 3233 4129 
Q 3647 3509 3647 2328 
Q 3647 1150 3233 529 
Q 2819 -91 2034 -91 
Q 1250 -91 836 529 
Q 422 1150 422 2328 
Q 422 3509 836 4129 
Q 1250 4750 2034 4750 
z
" transform="scale(0.015625)"/>
       </defs>
       <use xlink:href="#DejaVuSans-31"/>
       <use xlink:href="#DejaVuSans-30" transform="translate(63.623047 0)"/>
      </g>
     </g>
    </g>
    <g id="ytick_2">
     <g id="line2d_5">
      <g>
       <use xlink:href="#m4ed6903be6" x="40.625" y="142.567826" style="stroke: #000000; stroke-width: 0.8"/>
      </g>
     </g>
     <g id="text_6">
      <!-- 20 -->
      <g transform="translate(20.9 146.367045) scale(0.1 -0.1)">
       <use xlink:href="#DejaVuSans-32"/>
       <use xlink:href="#DejaVuSans-30" transform="translate(63.623047 0)"/>
      </g>
     </g>
    </g>
    <g id="ytick_3">
     <g id="line2d_6">
      <g>
       <use xlink:href="#m4ed6903be6" x="40.625" y="104.22" style="stroke: #000000; stroke-width: 0.8"/>
      </g>
     </g>
     <g id="text_7">
      <!-- 30 -->
      <g transform="translate(20.9 108.019219) scale(0.1 -0.1)">
       <use xlink:href="#DejaVuSans-33"/>
       <use xlink:href="#DejaVuSans-30" transform="translate(63.623047 0)"/>
      </g>
     </g>
    </g>
    <g id="ytick_4">
     <g id="line2d_7">
      <g>
       <use xlink:href="#m4ed6903be6" x="40.625" y="65.872174" style="stroke: #000000; stroke-width: 0.8"/>
      </g>
     </g>
     <g id="text_8">
      <!-- 40 -->
      <g transform="translate(20.9 69.671393) scale(0.1 -0.1)">
       <defs>
        <path id="DejaVuSans-34" d="M 2419 4116 
L 825 1625 
L 2419 1625 
L 2419 4116 
z
M 2253 4666 
L 3047 4666 
L 3047 1625 
L 3713 1625 
L 3713 1100 
L 3047 1100 
L 3047 0 
L 2419 0 
L 2419 1100 
L 313 1100 
L 313 1709 
L 2253 4666 
z
" transform="scale(0.015625)"/>
       </defs>
       <use xlink:href="#DejaVuSans-34"/>
       <use xlink:href="#DejaVuSans-30" transform="translate(63.623047 0)"/>
      </g>
     </g>
    </g>
    <g id="ytick_5">
     <g id="line2d_8">
      <g>
       <use xlink:href="#m4ed6903be6" x="40.625" y="27.524348" style="stroke: #000000; stroke-width: 0.8"/>
      </g>
     </g>
     <g id="text_9">
      <!-- 50 -->
      <g transform="translate(20.9 31.323567) scale(0.1 -0.1)">
       <defs>
        <path id="DejaVuSans-35" d="M 691 4666 
L 3169 4666 
L 3169 4134 
L 1269 4134 
L 1269 2991 
Q 1406 3038 1543 3061 
Q 1681 3084 1819 3084 
Q 2600 3084 3056 2656 
Q 3513 2228 3513 1497 
Q 3513 744 3044 326 
Q 2575 -91 1722 -91 
Q 1428 -91 1123 -41 
Q 819 9 494 109 
L 494 744 
Q 775 591 1075 516 
Q 1375 441 1709 441 
Q 2250 441 2565 725 
Q 2881 1009 2881 1497 
Q 2881 1984 2565 2268 
Q 2250 2553 1709 2553 
Q 1456 2553 1204 2497 
Q 953 2441 691 2322 
L 691 4666 
z
" transform="scale(0.015625)"/>
       </defs>
       <use xlink:href="#DejaVuSans-35"/>
       <use xlink:href="#DejaVuSans-30" transform="translate(63.623047 0)"/>
      </g>
     </g>
    </g>
    <g id="text_10">
     <!-- Number of $X$DL Steps -->
     <g transform="translate(14.8 157.97) rotate(-90) scale(0.1 -0.1)">
      <defs>
       <path id="DejaVuSans-4e" d="M 628 4666 
L 1478 4666 
L 3547 763 
L 3547 4666 
L 4159 4666 
L 4159 0 
L 3309 0 
L 1241 3903 
L 1241 0 
L 628 0 
L 628 4666 
z
" transform="scale(0.015625)"/>
       <path id="DejaVuSans-75" d="M 544 1381 
L 544 3500 
L 1119 3500 
L 1119 1403 
Q 1119 906 1312 657 
Q 1506 409 1894 409 
Q 2359 409 2629 706 
Q 2900 1003 2900 1516 
L 2900 3500 
L 3475 3500 
L 3475 0 
L 2900 0 
L 2900 538 
Q 2691 219 2414 64 
Q 2138 -91 1772 -91 
Q 1169 -91 856 284 
Q 544 659 544 1381 
z
M 1991 3584 
L 1991 3584 
z
" transform="scale(0.015625)"/>
       <path id="DejaVuSans-6d" d="M 3328 2828 
Q 3544 3216 3844 3400 
Q 4144 3584 4550 3584 
Q 5097 3584 5394 3201 
Q 5691 2819 5691 2113 
L 5691 0 
L 5113 0 
L 5113 2094 
Q 5113 2597 4934 2840 
Q 4756 3084 4391 3084 
Q 3944 3084 3684 2787 
Q 3425 2491 3425 1978 
L 3425 0 
L 2847 0 
L 2847 2094 
Q 2847 2600 2669 2842 
Q 2491 3084 2119 3084 
Q 1678 3084 1418 2786 
Q 1159 2488 1159 1978 
L 1159 0 
L 581 0 
L 581 3500 
L 1159 3500 
L 1159 2956 
Q 1356 3278 1631 3431 
Q 1906 3584 2284 3584 
Q 2666 3584 2933 3390 
Q 3200 3197 3328 2828 
z
" transform="scale(0.015625)"/>
       <path id="DejaVuSans-62" d="M 3116 1747 
Q 3116 2381 2855 2742 
Q 2594 3103 2138 3103 
Q 1681 3103 1420 2742 
Q 1159 2381 1159 1747 
Q 1159 1113 1420 752 
Q 1681 391 2138 391 
Q 2594 391 2855 752 
Q 3116 1113 3116 1747 
z
M 1159 2969 
Q 1341 3281 1617 3432 
Q 1894 3584 2278 3584 
Q 2916 3584 3314 3078 
Q 3713 2572 3713 1747 
Q 3713 922 3314 415 
Q 2916 -91 2278 -91 
Q 1894 -91 1617 61 
Q 1341 213 1159 525 
L 1159 0 
L 581 0 
L 581 4863 
L 1159 4863 
L 1159 2969 
z
" transform="scale(0.015625)"/>
       <path id="DejaVuSans-72" d="M 2631 2963 
Q 2534 3019 2420 3045 
Q 2306 3072 2169 3072 
Q 1681 3072 1420 2755 
Q 1159 2438 1159 1844 
L 1159 0 
L 581 0 
L 581 3500 
L 1159 3500 
L 1159 2956 
Q 1341 3275 1631 3429 
Q 1922 3584 2338 3584 
Q 2397 3584 2469 3576 
Q 2541 3569 2628 3553 
L 2631 2963 
z
" transform="scale(0.015625)"/>
       <path id="DejaVuSans-66" d="M 2375 4863 
L 2375 4384 
L 1825 4384 
Q 1516 4384 1395 4259 
Q 1275 4134 1275 3809 
L 1275 3500 
L 2222 3500 
L 2222 3053 
L 1275 3053 
L 1275 0 
L 697 0 
L 697 3053 
L 147 3053 
L 147 3500 
L 697 3500 
L 697 3744 
Q 697 4328 969 4595 
Q 1241 4863 1831 4863 
L 2375 4863 
z
" transform="scale(0.015625)"/>
       <path id="DejaVuSans-Oblique-58" d="M 878 4666 
L 1516 4666 
L 2316 2981 
L 3763 4666 
L 4500 4666 
L 2578 2438 
L 3738 0 
L 3103 0 
L 2163 1966 
L 459 0 
L -275 0 
L 1906 2509 
L 878 4666 
z
" transform="scale(0.015625)"/>
       <path id="DejaVuSans-44" d="M 1259 4147 
L 1259 519 
L 2022 519 
Q 2988 519 3436 956 
Q 3884 1394 3884 2338 
Q 3884 3275 3436 3711 
Q 2988 4147 2022 4147 
L 1259 4147 
z
M 628 4666 
L 1925 4666 
Q 3281 4666 3915 4102 
Q 4550 3538 4550 2338 
Q 4550 1131 3912 565 
Q 3275 0 1925 0 
L 628 0 
L 628 4666 
z
" transform="scale(0.015625)"/>
       <path id="DejaVuSans-4c" d="M 628 4666 
L 1259 4666 
L 1259 531 
L 3531 531 
L 3531 0 
L 628 0 
L 628 4666 
z
" transform="scale(0.015625)"/>
      </defs>
      <use xlink:href="#DejaVuSans-4e" transform="translate(0 0.015625)"/>
      <use xlink:href="#DejaVuSans-75" transform="translate(74.804688 0.015625)"/>
      <use xlink:href="#DejaVuSans-6d" transform="translate(138.183594 0.015625)"/>
      <use xlink:href="#DejaVuSans-62" transform="translate(235.595703 0.015625)"/>
      <use xlink:href="#DejaVuSans-65" transform="translate(299.072266 0.015625)"/>
      <use xlink:href="#DejaVuSans-72" transform="translate(360.595703 0.015625)"/>
      <use xlink:href="#DejaVuSans-20" transform="translate(401.708984 0.015625)"/>
      <use xlink:href="#DejaVuSans-6f" transform="translate(433.496094 0.015625)"/>
      <use xlink:href="#DejaVuSans-66" transform="translate(494.677734 0.015625)"/>
      <use xlink:href="#DejaVuSans-20" transform="translate(529.882812 0.015625)"/>
      <use xlink:href="#DejaVuSans-Oblique-58" transform="translate(561.669922 0.015625)"/>
      <use xlink:href="#DejaVuSans-44" transform="translate(630.175781 0.015625)"/>
      <use xlink:href="#DejaVuSans-4c" transform="translate(707.177734 0.015625)"/>
      <use xlink:href="#DejaVuSans-20" transform="translate(762.890625 0.015625)"/>
      <use xlink:href="#DejaVuSans-53" transform="translate(794.677734 0.015625)"/>
      <use xlink:href="#DejaVuSans-74" transform="translate(858.154297 0.015625)"/>
      <use xlink:href="#DejaVuSans-65" transform="translate(897.363281 0.015625)"/>
      <use xlink:href="#DejaVuSans-70" transform="translate(958.886719 0.015625)"/>
      <use xlink:href="#DejaVuSans-73" transform="translate(1022.363281 0.015625)"/>
     </g>
    </g>
   </g>
   <g id="line2d_9">
    <path d="M 71.315 192.42 
L 71.315 108.054783 
" clip-path="url(#p105db3de43)" style="fill: none; stroke: #000000; stroke-width: 1.5; stroke-linecap: square"/>
   </g>
   <g id="line2d_10">
    <path d="M 71.315 177.08087 
L 71.315 149.278696 
" clip-path="url(#p105db3de43)" style="fill: none; stroke: #000000; stroke-width: 4.5; stroke-linecap: square"/>
   </g>
   <g id="line2d_11">
    <path d="M 71.315 165.576522 
" clip-path="url(#p105db3de43)" style="fill: none; stroke: #000000; stroke-width: 1.5; stroke-linecap: square"/>
    <defs>
     <path id="m7a486d4f12" d="M 1.875 0 
L -1.875 -0 
" style="stroke: #ffffff; stroke-width: 0.9"/>
    </defs>
    <g clip-path="url(#p105db3de43)">
     <use xlink:href="#m7a486d4f12" x="71.315" y="165.576522" style="fill: #ffffff; stroke: #ffffff; stroke-width: 0.9"/>
    </g>
   </g>
   <g id="line2d_12">
    <path d="M 132.695 123.393913 
L 132.695 27.524348 
" clip-path="url(#p105db3de43)" style="fill: none; stroke: #000000; stroke-width: 1.5; stroke-linecap: square"/>
   </g>
   <g id="line2d_13">
    <path d="M 132.695 115.724348 
L 132.695 77.376522 
" clip-path="url(#p105db3de43)" style="fill: none; stroke: #000000; stroke-width: 4.5; stroke-linecap: square"/>
   </g>
   <g id="line2d_14">
    <path d="M 132.695 96.550435 
" clip-path="url(#p105db3de43)" style="fill: none; stroke: #000000; stroke-width: 1.5; stroke-linecap: square"/>
    <g clip-path="url(#p105db3de43)">
     <use xlink:href="#m7a486d4f12" x="132.695" y="96.550435" style="fill: #ffffff; stroke: #ffffff; stroke-width: 0.9"/>
    </g>
   </g>
   <g id="line2d_15">
    <path d="M 194.075 48.615652 
L 194.075 16.02 
" clip-path="url(#p105db3de43)" style="fill: none; stroke: #000000; stroke-width: 1.5; stroke-linecap: square"/>
   </g>
   <g id="line2d_16">
    <path d="M 194.075 48.615652 
L 194.075 30.400435 
" clip-path="url(#p105db3de43)" style="fill: none; stroke: #000000; stroke-width: 4.5; stroke-linecap: square"/>
   </g>
   <g id="line2d_17">
    <path d="M 194.075 37.111304 
" clip-path="url(#p105db3de43)" style="fill: none; stroke: #000000; stroke-width: 1.5; stroke-linecap: square"/>
    <g clip-path="url(#p105db3de43)">
     <use xlink:href="#m7a486d4f12" x="194.075" y="37.111304" style="fill: #ffffff; stroke: #ffffff; stroke-width: 0.9"/>
    </g>
   </g>
   <g id="patch_3">
    <path d="M 40.625 201.24 
L 40.625 7.2 
" style="fill: none; stroke: #000000; stroke-width: 0.8; stroke-linejoin: miter; stroke-linecap: square"/>
   </g>
   <g id="patch_4">
    <path d="M 40.625 201.24 
L 224.765 201.24 
" style="fill: none; stroke: #000000; stroke-width: 0.8; stroke-linejoin: miter; stroke-linecap: square"/>
   </g>
  </g>
 </g>
 <defs>
  <clipPath id="p105db3de43">
   <rect x="40.625" y="7.2" width="184.14" height="194.04"/>
  </clipPath>
 </defs>
</svg>
